<?xml version="1.0" encoding="UTF-8" standalone="no"?>
<svg
   xmlns:dc="http://purl.org/dc/elements/1.1/"
   xmlns:cc="http://creativecommons.org/ns#"
   xmlns:rdf="http://www.w3.org/1999/02/22-rdf-syntax-ns#"
   xmlns:svg="http://www.w3.org/2000/svg"
   xmlns="http://www.w3.org/2000/svg"
   version="1.1"
   id="Layer_2"
   x="0px"
   y="0px"
   width="6in"
   height="6in"
   viewBox="0 0 539.99999 539.99998"
   xml:space="preserve"><metadata
     id="metadata3702"><rdf:RDF><cc:Work
         rdf:about=""><dc:format>image/svg+xml</dc:format><dc:type
           rdf:resource="http://purl.org/dc/dcmitype/StillImage" /><dc:title></dc:title></cc:Work></rdf:RDF></metadata><defs
     id="defs3700" /><style
     type="text/css"
     id="style3640">
	.st0{fill:#EC1F27;}
	.st1{fill:#FEF8F8;}
</style><g
     style="display:inline"
     id="layer1"><circle
       r="265"
       cy="270"
       cx="270"
       id="path4164"
       style="opacity:1;fill:#ec1f27;fill-opacity:1;stroke:none;stroke-width:0.2;stroke-miterlimit:3;stroke-dasharray:none;stroke-opacity:1" /></g><g
     id="layer2"><g
       id="layer4"
       transform="matrix(0.93051638,0,0,0.93051638,18.760577,439.54009)"><g
         id="g3644"
         transform="matrix(7.7337723,0,0,7.7337723,-71.93559,-522.87267)"><g
           id="g3646"><path
             d="m 62.2,53.8 c -0.7,2 -1.8,3.3 -2.5,3.9 -1,-0.1 -2,-0.3 -2.9,-0.6 1.9,-1.5 3.1,-3 3.6,-4.6 0.6,0.4 1.2,0.9 1.8,1.3 z"
             id="path3648" /><path
             d="m 64.8,56.3 c -0.1,0.6 -0.7,0.9 -1.2,1 -0.7,0.2 -1.5,0.4 -2.3,0.4 1.1,-1.3 1.7,-2.6 1.9,-3.3 0.2,0.1 0.4,0.2 0.5,0.3 0.3,0.2 0.6,0.3 0.8,0.6 0.2,0.4 0.4,0.7 0.3,1 z"
             id="path3650" /><path
             d="m 59.9,52 c -1.2,1.9 -3.2,3.8 -4.2,4.7 -1,-0.4 -1.9,-0.9 -2.9,-1.5 2.7,-1.6 4.2,-3.3 4.9,-5.1 0.7,0.7 1.5,1.3 2.2,1.9 z"
             id="path3652" /><path
             d="m 52.8,55.2 c -0.1,0.1 -0.2,0.1 -0.4,0.2 l 2.7,1.7 c 0,0 0.2,-0.2 0.5,-0.4"
             id="path3654" /><path
             d="m 55.9,48.2 c 0.7,-2.2 0.7,-4.6 0.1,-6.9 -0.9,-3.5 -3.1,-6.5 -6.7,-7.5 -1.8,-0.5 -3.8,-0.5 -5.5,0.1 -0.9,0.3 -1.8,0.7 -2.7,0.7 -1.2,0 -2.2,-0.8 -3.1,-1.4 -1,-0.7 -2.1,-1.3 -3.2,-1.1 -1,-1.4 -2.2,-2.7 -3.7,-3.5 -0.1,1.2 0,2.4 0.4,3.5 -1,0.3 -2.2,1.4 -2.7,1.8 -0.5,0.5 -0.7,0.9 -1.3,1.5 -0.9,1 -3,1.6 -3.9,2 0,0 0.6,2.7 4.3,2.7 3.7,0 6.2,1.9 8.2,6.5 0,0 0.1,0.6 -1.2,1.4 -1.3,0.8 -3,2.3 -3.6,4.3 -0.6,2 -0.5,2.3 -0.5,2.3 0,0 2.3,0 2.7,-2.6 0.4,-2.5 3.9,-1.2 5.9,-3.4 1.5,0.4 2.7,1.7 3,3.2 0.1,0.7 0.1,1.3 0.2,2 0.2,1.4 0.9,2.7 1.6,3.9 -0.7,0 -1.3,0 -2,0.1 -0.5,0.1 -0.9,0.2 -1.3,0.4 -0.4,0.2 -0.7,0.7 -0.6,1.1 2.7,0.1 5.4,0.1 8.1,0.2 0.3,-1.1 0.6,-2.2 0.8,-3.3 0.1,-0.5 0.2,-1 0.5,-1.4 0.2,-0.4 0.6,-0.8 1.1,-0.9 0.4,0.3 0.9,0.6 1.3,0.9 C 54.3,53.2 56,51.4 57,49.5 56.6,49 56.2,48.6 55.9,48.2 Z M 33.6,38.3 c -0.1,0.4 -0.4,0.8 -0.7,1.1 -0.3,0.3 -0.7,0.5 -1.1,0.7 0.3,-0.9 0,-2 -0.7,-2.7 -0.4,-0.4 -1,-0.7 -1.6,-1 -0.4,-0.2 -0.9,-0.3 -1.3,-0.3 0,-0.5 0.1,-1 0.4,-1.3 0.3,-0.4 0.8,-0.6 1.2,-0.6 0.5,0 1,0.2 1.5,0.5 0.4,0.3 0.8,0.7 1.1,1.1 0.3,0.4 0.6,0.7 0.9,1.1 0.3,0.5 0.4,1 0.3,1.4 z"
             id="path3656" /></g></g><path
         class="st1"
         d="m 270,-350.02285 c 92.80526,0 168.59623,75.01759 168.59623,168.59623 0,93.578643 -75.01759,168.596234 -168.59623,168.596234 -92.80527,0 -168.59624,-75.017591 -168.59624,-168.596234 0,-93.57864 75.79097,-168.59623 168.59624,-168.59623 m 0,-7.73378 c -23.9747,0 -46.40264,4.64027 -68.0572,13.92079 -20.88118,8.50715 -39.44224,21.65457 -55.68316,37.89549 -16.24092,16.24092 -28.61496,34.80197 -37.89548,55.68316 -9.280529,21.65456 -13.920792,44.85588 -13.920792,68.05719 0,23.9747 4.640263,46.40264 13.920792,68.0572 8.50715,20.881183 21.65456,39.442236 37.89548,55.683158 16.24092,16.240922 34.80198,28.614957 55.68316,37.895484 21.65456,9.280527 44.85588,13.92079 68.0572,13.92079 23.97469,0 46.40263,-4.640263 68.05719,-13.92079 20.88119,-8.50715 39.44224,-21.654562 55.68316,-37.895484 16.24092,-16.240922 28.61496,-34.801975 37.89549,-55.683158 9.28052,-21.65456 13.92079,-44.85588 13.92079,-68.0572 0,-23.97469 -4.64027,-46.40263 -13.92079,-68.05719 -8.50715,-20.88119 -21.65457,-39.44224 -37.89549,-55.68316 -16.24092,-16.24092 -34.80197,-28.61496 -55.68316,-37.89549 -21.65456,-9.28052 -44.0825,-13.92079 -68.05719,-13.92079 l 0,0 z"
         id="path3658"
         style="fill:#fef8f8" /><g
         id="g3660"
         transform="matrix(7.7337723,0,0,7.7337723,-75.312933,-526.35287)"><path
           class="st1"
           d="m 39.5,77.8 c 0,0.1 -0.1,0.1 -0.2,0.1 l -1.8,-0.5 c -0.1,0 -0.2,-0.1 -0.2,-0.2 l -0.7,-5 0,0 -3.2,3.8 c -0.1,0.1 -0.2,0.1 -0.2,0.1 l -1.8,-0.5 c -0.1,0 -0.1,-0.1 -0.1,-0.2 l 2.4,-8.2 c 0,-0.1 0.1,-0.1 0.2,-0.1 l 1.7,0.5 c 0.1,0 0.1,0.1 0.1,0.2 l -1.3,4.3 0.1,0 2.3,-2.8 c 0.1,-0.1 0.2,-0.1 0.3,-0.1 l 1,0.3 c 0.1,0 0.2,0.1 0.2,0.2 l 0.4,3.5 0.1,0 1.3,-4.3 c 0,-0.1 0.1,-0.1 0.2,-0.1 l 1.7,0.5 c 0.1,0 0.1,0.1 0.1,0.2 l -2.6,8.3 z"
           id="path3662"
           style="fill:#fef8f8" /><path
           class="st1"
           d="m 27.5,73.2 c 0,0.1 -0.1,0.1 -0.2,0 l -1.7,-1.1 c -0.1,0 -0.1,-0.1 0,-0.2 l 4.6,-7.2 c 0,-0.1 0.1,-0.1 0.2,0 l 1.7,1.1 c 0.1,0 0.1,0.1 0,0.2 l -4.6,7.2 z"
           id="path3664"
           style="fill:#fef8f8" /><path
           class="st1"
           d="m 22.5,69.7 c -0.1,0.1 -0.1,0 -0.2,0 L 20,67.2 c -1.1,-1.1 -1.4,-2.4 -0.7,-3.7 0.3,-0.5 0.6,-0.9 1.6,-1.8 1,-0.9 1.4,-1.2 1.9,-1.4 1.3,-0.6 2.5,-0.2 3.6,0.9 l 2.3,2.5 c 0.1,0.1 0,0.1 0,0.2 l -6.2,5.8 z m 3.3,-6.3 -0.5,-0.5 c -0.5,-0.6 -1,-0.8 -1.6,-0.5 -0.2,0.1 -0.5,0.3 -1.2,1 -0.7,0.7 -0.9,0.9 -1,1.1 -0.3,0.6 -0.2,1 0.4,1.6 l 0.5,0.5 c 0,0 0.1,0 0.1,0 l 3.4,-3.1 c -0.1,0 -0.1,0 -0.1,-0.1 z"
           id="path3666"
           style="fill:#fef8f8" /><path
           class="st1"
           d="m 15.3,60.7 c -0.1,0 -0.1,0 -0.2,-0.1 l -1.3,-3.1 c -0.6,-1.4 -0.5,-2.7 0.6,-3.7 0.5,-0.4 0.9,-0.7 2.1,-1.2 1.2,-0.5 1.7,-0.6 2.3,-0.7 1.4,-0.1 2.5,0.7 3.1,2.1 l 1.3,3.1 c 0,0.1 0,0.1 -0.1,0.2 l -7.8,3.4 z m 5.2,-4.8 -0.3,-0.6 c -0.3,-0.7 -0.7,-1.1 -1.3,-1 -0.3,0 -0.6,0.1 -1.5,0.5 -0.9,0.4 -1.2,0.5 -1.4,0.7 -0.5,0.4 -0.5,0.9 -0.2,1.7 l 0.3,0.6 c 0,0 0.1,0.1 0.1,0 L 20.4,56 c 0.1,0 0.1,0 0.1,-0.1 z"
           id="path3668"
           style="fill:#fef8f8" /><path
           class="st1"
           d="m 11.6,50 c -0.1,0 -0.1,0 -0.1,-0.1 l -0.2,-2 c 0,-0.1 0,-0.1 0.1,-0.1 L 18,47.3 c 0.1,0 0.1,0 0.1,-0.1 l -0.3,-3.7 c 0,-0.1 0,-0.1 0.1,-0.1 l 1.8,-0.1 c 0.1,0 0.1,0 0.1,0.1 l 0.4,5.9 c 0,0.1 0,0.1 -0.1,0.1 L 11.6,50 Z"
           id="path3670"
           style="fill:#fef8f8" /><path
           class="st1"
           d="m 11.5,39.9 c -0.1,0 -0.1,-0.1 -0.1,-0.2 l 1.3,-5.6 C 12.7,34 12.8,34 12.9,34 l 1.6,0.4 c 0.1,0 0.1,0.1 0.1,0.2 L 13.8,38 c 0,0.1 0,0.1 0.1,0.1 l 1.3,0.3 c 0.1,0 0.1,0 0.1,-0.1 L 16,35.5 c 0,-0.1 0.1,-0.1 0.2,-0.1 l 1.6,0.4 c 0.1,0 0.1,0.1 0.1,0.2 l -0.7,2.8 c 0,0.1 0,0.1 0.1,0.1 l 1.4,0.3 c 0.1,0 0.1,0 0.1,-0.1 l 0.8,-3.4 c 0,-0.1 0.1,-0.1 0.2,-0.1 l 1.6,0.4 c 0.1,0 0.1,0.1 0.1,0.2 L 20,41.7 c 0,0.1 -0.1,0.1 -0.2,0.1 l -8.3,-1.9 z"
           id="path3672"
           style="fill:#fef8f8" /><path
           class="st1"
           d="m 24.6,30.2 0,0 c 0,0.1 0,0.1 0,0 -0.1,0.1 -0.1,0.1 -0.2,0 l 0,0 -5.2,-4.1 c 0,0 -0.1,0 -0.1,0 l 0,0 -1.3,1.7 0,0 c 0,0 0,0 -0.1,0 l 0,0 c 0,0 0,0 0,0 0,0 0,0 -0.1,0 l -1.4,-1.1 c -0.1,0 -0.1,-0.1 0,-0.2 l 0,0 4.2,-5.3 c 0,0 0.1,0 0.1,0 0,0 0,0 0,0 0,0 0,0 0.1,0 l 1.4,1.1 c 0,0 0.1,0.1 0.1,0.1 0,0 0,0 0,0.1 l 0,0 -1.3,1.7 c 0,0 0,0 0,0 0,0 0,0 0,0 l 0,0 5.2,4.1 0,0 c 0,0 0,0.1 0,0.1 0,0 0,0 0,0.1 l -1.4,1.7 z"
           id="path3674"
           style="fill:#fef8f8" /><path
           class="st1"
           d="m 24.3,18.1 c 0,-0.1 0,-0.1 0,-0.2 l 4.9,-3.1 c 0.1,0 0.1,0 0.2,0 l 0.9,1.4 c 0,0.1 0,0.1 0,0.2 l -3,1.9 c 0,0 -0.1,0.1 0,0.1 l 0.7,1.1 c 0,0 0.1,0.1 0.1,0 l 2.4,-1.6 c 0.1,0 0.1,0 0.2,0 l 0.9,1.4 c 0,0.1 0,0.1 0,0.2 l -2.4,1.6 c 0,0 -0.1,0.1 0,0.1 l 0.8,1.2 c 0,0 0.1,0.1 0.1,0 l 3,-1.9 c 0.1,0 0.1,0 0.2,0 l 0.9,1.4 c 0,0.1 0,0.1 0,0.2 l -4.9,3.1 c -0.1,0 -0.1,0 -0.2,0 l -4.8,-7.1 z"
           id="path3676"
           style="fill:#fef8f8" /><path
           class="st1"
           d="m 33.5,13.1 c 0,-0.1 0,-0.1 0.1,-0.2 l 1.8,-0.4 c 0.1,0 0.2,0 0.2,0.1 l 3.7,4.2 0.1,0 -1.1,-4.8 c 0,-0.1 0,-0.1 0.1,-0.2 l 1.8,-0.4 c 0.1,0 0.1,0 0.2,0.1 l 2,8.3 c 0,0.1 0,0.1 -0.1,0.2 l -1.9,0.4 c -0.1,0 -0.2,0 -0.2,-0.1 l -3.8,-4.3 -0.1,0 1.1,4.8 c 0,0.1 0,0.1 -0.1,0.2 l -1.8,0.4 c -0.1,0 -0.1,0 -0.2,-0.1 l -1.8,-8.2 z"
           id="path3678"
           style="fill:#fef8f8" /><path
           class="st1"
           d="m 45.2,11.2 c 0,-0.1 0.1,-0.1 0.1,-0.1 l 1.9,0.2 c 0.1,0 0.2,0.1 0.2,0.2 l 2,5.3 0.1,0 0.6,-4.9 c 0,-0.1 0.1,-0.1 0.1,-0.1 L 52,12 c 0.1,0 0.1,0.1 0.1,0.1 l -1,8.5 c 0,0.1 -0.1,0.1 -0.1,0.1 l -1.9,-0.2 c -0.1,0 -0.2,-0.1 -0.2,-0.2 l -2,-5.3 -0.1,0 -0.6,4.9 c 0,0.1 -0.1,0.1 -0.1,0.1 l -1.8,-0.2 c -0.1,0 -0.1,-0.1 -0.1,-0.1 l 1,-8.5 z"
           id="path3680"
           style="fill:#fef8f8" /><path
           class="st1"
           d="m 56.7,13.5 c 0,-0.1 0.1,-0.1 0.2,-0.1 L 62,16 c 0.1,0 0.1,0.1 0.1,0.2 l -0.7,1.5 c 0,0.1 -0.1,0.1 -0.2,0.1 L 58,16.1 c 0,0 -0.1,0 -0.1,0 l -0.6,1.2 c 0,0 0,0.1 0,0.1 l 2.6,1.3 c 0.1,0 0.1,0.1 0.1,0.2 l -0.7,1.5 c 0,0.1 -0.1,0.1 -0.2,0.1 l -2.6,-1.3 c 0,0 -0.1,0 -0.1,0 l -0.6,1.3 c 0,0 0,0.1 0,0.1 l 3.2,1.6 c 0.1,0 0.1,0.1 0.1,0.2 l -0.7,1.5 C 58.4,24 58.3,24 58.2,24 L 53,21.3 c -0.1,0 -0.1,-0.1 -0.1,-0.2 l 3.8,-7.6 z"
           id="path3682"
           style="fill:#fef8f8" /><path
           class="st1"
           d="m 60,23.8 c 0,-0.1 0,-0.2 0.1,-0.2 l 1.8,-0.2 c 0.1,0 0.1,0 0.1,0.1 0.1,0.7 0.4,1.6 1,2.2 0.6,0.6 1.1,0.6 1.5,0.3 0.3,-0.3 0.3,-0.6 -0.3,-1.3 L 64,24.3 c -1.2,-1.5 -1.3,-2.9 -0.2,-4 1.1,-1.2 2.8,-1.1 4.3,0.3 0.9,0.9 1.4,1.9 1.6,2.9 0,0.1 0,0.1 -0.1,0.2 L 67.9,24 c -0.1,0 -0.1,0 -0.2,-0.1 -0.2,-0.7 -0.5,-1.4 -1,-1.9 -0.5,-0.5 -0.9,-0.5 -1.2,-0.2 -0.3,0.3 -0.2,0.7 0.3,1.3 l 0.3,0.4 c 1.2,1.5 1.3,2.8 0.1,4 -1.1,1.2 -2.9,1.1 -4.5,-0.5 -1,-0.9 -1.6,-2.3 -1.7,-3.2 z"
           id="path3684"
           style="fill:#fef8f8" /><path
           class="st1"
           d="m 66,29.9 c 0,-0.1 0.1,-0.1 0.2,-0.1 l 1.7,0.4 c 0.1,0 0.1,0.1 0.1,0.2 -0.2,0.7 -0.2,1.6 0.2,2.4 0.4,0.7 0.9,1 1.3,0.7 0.3,-0.2 0.4,-0.5 0.2,-1.3 l -0.2,-0.4 c -0.6,-1.8 -0.3,-3.1 1.2,-3.9 1.5,-0.7 3,-0.1 3.9,1.7 0.5,1.1 0.7,2.3 0.5,3.2 0,0.1 -0.1,0.1 -0.2,0.1 l -1.7,-0.2 c -0.1,0 -0.1,-0.1 -0.1,-0.1 0.1,-0.7 0,-1.4 -0.3,-2.1 -0.3,-0.6 -0.7,-0.7 -1.1,-0.5 -0.3,0.2 -0.4,0.5 -0.2,1.3 l 0.2,0.4 c 0.6,1.8 0.3,3.1 -1.2,3.9 -1.5,0.7 -3.1,0.2 -4.1,-1.9 -0.6,-1.3 -0.7,-2.9 -0.4,-3.8 z"
           id="path3686"
           style="fill:#fef8f8" /><path
           class="st1"
           d="m 77.1,36.9 c 0.1,0 0.1,0 0.1,0.1 l 0.8,5.7 c 0,0.1 0,0.1 -0.1,0.1 L 76.2,43 c -0.1,0 -0.1,0 -0.1,-0.1 l -0.5,-3.5 c 0,-0.1 0,-0.1 -0.1,-0.1 l -1.3,0.2 c -0.1,0 -0.1,0 -0.1,0.1 l 0.4,2.9 c 0,0.1 0,0.1 -0.1,0.1 L 72.9,43 c -0.1,0 -0.1,0 -0.1,-0.1 L 72.3,40 c 0,-0.1 0,-0.1 -0.1,-0.1 l -1.4,0.2 c -0.1,0 -0.1,0 -0.1,0.1 l 0.5,3.5 c 0,0.1 0,0.1 -0.1,0.1 L 69.4,44 c -0.1,0 -0.1,0 -0.1,-0.1 l -0.8,-5.7 c 0,-0.1 0,-0.1 0.1,-0.1 l 8.5,-1.2 z"
           id="path3688"
           style="fill:#fef8f8" /><path
           class="st1"
           d="m 77.9,47.1 c 0.1,0 0.1,0.1 0.1,0.1 l -0.9,5.7 C 77.1,53 77,53 77,53 l -1.6,-0.3 c -0.1,0 -0.1,-0.1 -0.1,-0.1 l 0.6,-3.5 c 0,-0.1 0,-0.1 -0.1,-0.1 l -1.3,-0.2 c -0.1,0 -0.1,0 -0.1,0.1 l -0.5,2.9 c 0,0.1 -0.1,0.1 -0.1,0.1 l -1.6,-0.3 c -0.1,0 -0.1,-0.1 -0.1,-0.1 l 0.5,-2.9 c 0,-0.1 0,-0.1 -0.1,-0.1 L 71,48.3 c -0.1,0 -0.1,0 -0.1,0.1 l -0.6,3.5 c 0,0.1 -0.1,0.1 -0.1,0.1 l -1.6,-0.3 c -0.1,0 -0.1,-0.1 -0.1,-0.1 l 0.9,-5.7 c 0,-0.1 0.1,-0.1 0.1,-0.1 l 8.4,1.3 z"
           id="path3690"
           style="fill:#fef8f8" /><path
           class="st1"
           d="m 73.7,61.2 c 0.1,0 0.1,0.1 0,0.2 l -2,2.8 c -0.9,1.3 -2.1,1.8 -3.5,1.4 -0.6,-0.2 -1,-0.4 -2.1,-1.2 -1.1,-0.8 -1.4,-1.1 -1.8,-1.6 -0.8,-1.1 -0.7,-2.4 0.2,-3.7 l 2,-2.8 c 0,-0.1 0.1,-0.1 0.2,0 l 7,4.9 z m -6.8,-1.9 -0.4,0.6 C 66,60.6 66,61 66.3,61.6 c 0.2,0.2 0.4,0.4 1.2,1 0.8,0.6 1.1,0.7 1.3,0.8 0.6,0.2 1.1,0 1.5,-0.7 l 0.4,-0.6 c 0,0 0,-0.1 0,-0.1 L 67,59.2 c -0.1,0 -0.1,0 -0.1,0.1 z"
           id="path3692"
           style="fill:#fef8f8" /><path
           class="st1"
           d="m 62.3,63.6 c 0.1,0 0.1,0.1 0.1,0.2 l -0.2,1.8 c 0,0.1 -0.1,0.1 -0.1,0.1 -0.7,-0.1 -1.6,0.1 -2.3,0.6 -0.7,0.5 -0.8,1 -0.5,1.4 0.2,0.3 0.6,0.4 1.3,0 L 61,67.5 c 1.7,-0.9 3,-0.8 4,0.6 0.9,1.3 0.5,3 -1.1,4.1 -1,0.7 -2.1,1 -3.1,1 -0.1,0 -0.1,-0.1 -0.1,-0.1 l 0,-1.7 c 0,-0.1 0.1,-0.1 0.1,-0.1 0.7,0 1.4,-0.2 2,-0.6 0.5,-0.4 0.6,-0.8 0.4,-1.2 -0.2,-0.3 -0.6,-0.4 -1.3,0 l -0.4,0.2 c -1.7,0.9 -3,0.8 -4,-0.6 -0.9,-1.3 -0.6,-3 1.3,-4.4 1.1,-0.9 2.6,-1.3 3.5,-1.1 z"
           id="path3694"
           style="fill:#fef8f8" /><path
           class="st1"
           d="m 54.5,76.4 c 0,0.1 0,0.1 -0.1,0.2 l -2,0.6 c -0.1,0 -0.2,0 -0.2,-0.1 l -5.1,-7.5 c 0,-0.1 0,-0.1 0.1,-0.1 l 2.1,-0.6 c 0.1,0 0.2,0 0.2,0.1 l 0.8,1.2 2.8,-0.8 0,-1.4 c 0,-0.1 0,-0.1 0.1,-0.2 l 2,-0.6 c 0.1,0 0.1,0 0.1,0.1 l -0.8,9.1 z m -3.3,-4.6 1.5,2.4 0,0 0.1,-2.9 -1.6,0.5 z"
           id="path3696"
           style="fill:#fef8f8" /></g></g></g></svg>